<svg width="10" height="8" viewBox="0 0 10 8" fill="none" xmlns="http://www.w3.org/2000/svg">
<path d="M2.60761 7.85834L4.83706 6.70889L7.0665 7.85834C7.11899 7.8855 7.17819 7.8977 7.23739 7.89355C7.29659 7.88941 7.35342 7.86908 7.40144 7.83487C7.44946 7.80067 7.48674 7.75395 7.50906 7.70003C7.53139 7.6461 7.53786 7.58712 7.52774 7.52977L7.10202 5.09545L8.90551 3.37148C8.95558 3.3239 8.98823 3.26117 8.99816 3.19303C9.0233 3.02258 8.90286 2.86424 8.72904 2.8398L6.23644 2.48463L5.12161 0.269641L5.02279 0.317229L5.12161 0.269641C5.09541 0.217442 5.05483 0.173481 5.00446 0.142739C4.95409 0.111997 4.89594 0.0957031 4.83661 0.0957031C4.77729 0.0957031 4.71914 0.111997 4.66877 0.142739C4.6184 0.173481 4.57782 0.217442 4.55162 0.269641L3.43678 2.48463L0.944185 2.8398C0.885451 2.84811 0.830261 2.87238 0.784876 2.90987C0.73949 2.94736 0.705722 2.99657 0.687397 3.05191C0.669073 3.10726 0.666927 3.16653 0.681201 3.22302C0.695475 3.2795 0.725599 3.33093 0.768158 3.37148L0.844919 3.29426L0.768158 3.37148L2.57165 5.09545L2.14593 7.52977C2.13402 7.59726 2.14526 7.66691 2.17791 7.72748C2.19731 7.76373 2.22381 7.79587 2.25589 7.82207C2.28797 7.84828 2.325 7.86802 2.36487 7.88017C2.40474 7.89233 2.44666 7.89665 2.48824 7.89291C2.52981 7.88916 2.57022 7.87742 2.60717 7.85834H2.60761Z" fill="white"/>
</svg>
